<?xml version="1.0" standalone="no"?>
<!DOCTYPE svg PUBLIC "-//W3C//DTD SVG 20010904//EN"
 "http://www.w3.org/TR/2001/REC-SVG-20010904/DTD/svg10.dtd">
<svg version="1.0" xmlns="http://www.w3.org/2000/svg"
 width="400.000000pt" height="311.000000pt" viewBox="0 0 400.000000 311.000000"
 preserveAspectRatio="xMidYMid meet">

<g transform="translate(0.000000,311.000000) scale(0.100000,-0.100000)"
fill="#000000" stroke="none">
<path d="M863 2993 c-7 -2 -13 -18 -13 -34 0 -26 3 -29 35 -29 33 0 35 2 35
35 0 30 -3 35 -22 34 -13 0 -29 -3 -35 -6z"/>
<path d="M1458 2923 l-3 -48 -47 -3 c-47 -3 -48 -4 -48 -38 l0 -34 50 0 50 0
0 -115 0 -115 35 0 35 0 0 115 0 115 60 0 60 0 0 35 0 35 -60 0 -60 0 0 50 0
50 -34 0 c-34 0 -35 -1 -38 -47z"/>
<path d="M2107 2963 c-4 -3 -7 -91 -7 -195 l0 -188 35 0 35 0 0 160 0 160 145
0 145 0 0 35 0 35 -173 0 c-96 0 -177 -3 -180 -7z"/>
<path d="M146 2929 c-25 -30 -26 -35 -26 -166 l0 -135 29 -29 29 -29 151 0
151 0 0 35 0 34 -142 3 -143 3 0 120 0 120 143 3 142 3 0 34 0 35 -154 0 -154
0 -26 -31z"/>
<path d="M2570 2870 c-58 -14 -70 -39 -70 -147 0 -89 1 -95 26 -118 24 -22 36
-25 110 -25 l84 0 0 30 0 30 -61 0 c-90 0 -99 8 -99 84 0 42 5 67 14 75 9 8
43 11 93 9 72 -3 78 -5 81 -26 4 -26 -2 -29 -90 -37 -67 -6 -68 -7 -68 -36 l0
-29 86 0 c81 0 87 1 115 29 53 54 32 141 -40 161 -42 12 -131 12 -181 0z"/>
<path d="M2870 2742 c0 -151 4 -162 55 -162 114 0 229 101 286 250 l19 50 -38
0 c-35 0 -38 -3 -61 -55 -40 -93 -146 -192 -181 -170 -6 4 -10 55 -10 116 l0
109 -35 0 -35 0 0 -138z"/>
<path d="M3301 2866 c-13 -7 -30 -24 -37 -37 -16 -28 -18 -156 -4 -193 14 -39
59 -56 145 -56 l75 0 0 35 0 34 -77 3 -78 3 0 75 0 75 90 0 c89 0 90 0 90 -25
0 -24 -2 -25 -77 -28 l-78 -3 0 -34 0 -35 79 0 c70 0 83 3 109 25 16 14 33 37
36 51 10 39 -11 92 -44 109 -37 19 -195 20 -229 1z"/>
<path d="M3659 2851 c-29 -29 -29 -30 -29 -150 l0 -121 35 0 34 0 3 113 3 112
93 3 92 3 0 34 0 35 -101 0 c-98 0 -101 -1 -130 -29z"/>
<path d="M588 2854 c-42 -22 -48 -43 -48 -168 l0 -116 35 0 35 0 0 109 c0 127
-5 121 111 121 l79 0 0 35 0 35 -92 0 c-63 -1 -102 -6 -120 -16z"/>
<path d="M850 2720 l0 -150 35 0 35 0 0 150 0 150 -35 0 -35 0 0 -150z"/>
<path d="M1038 2854 c-15 -8 -32 -23 -38 -34 -6 -10 -10 -89 -10 -179 l0 -161
35 0 35 0 0 155 c0 179 -8 168 115 163 l70 -3 3 -69 c2 -49 -1 -72 -10 -77 -7
-5 -43 -9 -80 -9 l-68 0 0 -35 0 -35 75 0 c81 0 127 16 145 49 5 11 10 59 10
106 0 82 -1 88 -29 116 -29 28 -32 29 -128 29 -67 -1 -107 -5 -125 -16z"/>
<path d="M1745 2858 c-11 -6 -25 -19 -32 -27 -16 -20 -17 -185 -2 -213 16 -29
70 -48 141 -48 130 0 169 27 176 120 6 79 -4 127 -33 156 -22 22 -32 24 -127
24 -59 0 -112 -6 -123 -12z m209 -74 c3 -9 6 -37 6 -64 0 -67 -16 -80 -95 -80
-94 0 -95 1 -95 79 0 37 3 71 7 74 3 4 43 7 89 7 65 0 83 -3 88 -16z"/>
<path d="M2200 2775 l0 -35 110 0 110 0 0 35 0 35 -110 0 -110 0 0 -35z"/>
<path d="M1313 2370 c-34 -14 -36 -42 -4 -111 49 -110 99 -279 116 -399 19
-124 15 -195 -12 -273 -21 -59 -20 -59 -185 20 -114 54 -118 55 -143 39 -52
-34 -23 -69 110 -132 484 -229 1126 -229 1610 0 133 63 162 98 110 132 -25 16
-29 15 -143 -39 -165 -79 -164 -79 -185 -20 -27 78 -31 149 -12 273 17 120 67
289 116 399 32 71 30 97 -8 112 -31 12 -1340 11 -1370 -1z"/>
<path d="M2146 1305 c-3 -9 -6 -25 -6 -35 0 -17 -9 -20 -72 -22 -63 -3 -73 -6
-76 -22 -5 -25 23 -46 60 -46 l28 0 0 -214 0 -215 -42 -3 c-37 -3 -44 -7 -46
-27 -5 -32 12 -41 84 -41 61 0 62 0 68 -31 5 -29 8 -30 48 -27 39 3 43 6 46
31 3 25 7 27 47 27 40 0 44 -2 47 -27 3 -25 7 -28 45 -31 39 -3 43 -1 49 25 3
15 7 33 9 39 2 6 20 15 41 19 143 26 212 149 131 230 -19 19 -52 38 -78 45
l-44 13 40 13 c57 20 85 55 85 109 0 37 -5 47 -35 74 -19 16 -54 35 -77 42
-24 6 -49 13 -55 15 -7 2 -13 14 -13 26 0 38 -14 50 -56 46 -36 -3 -39 -6 -42
-35 -3 -32 -5 -33 -47 -33 -42 0 -44 1 -47 33 -3 30 -6 32 -44 35 -31 2 -43
-1 -48 -13z m273 -169 c12 -11 21 -29 21 -41 0 -41 -35 -60 -121 -64 l-79 -3
0 67 0 67 79 -3 c60 -3 84 -9 100 -23z m-4 -220 c37 -16 56 -57 38 -85 -19
-31 -75 -51 -145 -51 l-68 0 0 75 0 75 70 0 c39 0 86 -6 105 -14z"/>
<path d="M1542 1221 c-65 -22 -117 -63 -157 -122 l-30 -44 -94 3 c-142 4 -141
5 -141 -166 0 -148 4 -162 50 -162 48 0 60 26 60 133 l0 97 55 0 c52 0 55 -1
55 -26 0 -44 49 -132 94 -169 76 -62 129 -80 236 -80 123 0 178 23 254 106 44
47 57 69 67 114 22 100 -18 203 -104 269 -84 64 -236 85 -345 47z"/>
<path d="M1169 577 c-66 -19 -104 -50 -134 -111 -66 -135 -5 -285 135 -331
147 -47 272 -22 434 88 72 49 143 77 194 77 73 0 108 53 57 86 -52 34 -184 -1
-302 -79 -105 -68 -175 -96 -243 -97 -79 0 -124 16 -159 56 -26 29 -31 43 -31
85 0 88 42 139 115 139 52 -1 82 -18 103 -61 21 -42 60 -51 91 -20 16 16 18
25 11 52 -27 91 -158 148 -271 116z"/>
<path d="M2705 581 c-72 -18 -129 -65 -145 -120 -7 -27 -5 -36 11 -52 31 -31
70 -22 91 20 21 43 51 60 103 61 73 0 115 -51 115 -139 0 -42 -5 -56 -31 -85
-35 -40 -80 -56 -159 -56 -68 1 -138 29 -243 97 -93 62 -161 86 -245 87 -67 1
-82 -8 -82 -52 0 -26 32 -42 86 -42 47 0 119 -29 190 -77 89 -61 153 -90 225
-103 152 -28 297 28 348 133 27 55 28 146 2 202 -44 98 -158 152 -266 126z"/>
</g>
</svg>
